<svg xmlns="http://www.w3.org/2000/svg" viewBox="0 0 100 100" width="500" height="500" class="illustration"><g id="Layer_1" data-name="Layer 1"><path d="M37.12,71.19h22.2a0,0,0,0,1,0,0v4.54A7.24,7.24,0,0,1,52.07,83H44.36a7.24,7.24,0,0,1-7.24-7.24V71.19A0,0,0,0,1,37.12,71.19Z" fill="#0064f4"></path><path d="M49,88H47.47a3.4,3.4,0,0,1-3.4-3.39V83h8.35v1.55h0A3.39,3.39,0,0,1,49,88Z" fill="#0099f5"></path><path d="M48.22,71.19V28.61S58.64,27.3,61,36.11c0,0,8.05.14,8.67,5.71.69,6.18-2,7.57-7.39,7.85,0,0,7.18.81,7.18,7.17S60.7,63,60.7,63s-1.39,2.73-1.39,8.24" fill="#f0457d"></path><path d="M48.25,71.19V28.8h0A20.24,20.24,0,0,0,28,49a19.91,19.91,0,0,0,.75,5.44A20.27,20.27,0,0,0,37.38,66.1v5.53h22.2v-.44Z" fill="#ffd44d"></path></g><g id="Layer_2" data-name="Layer 2"><path d="M37.12,71.19h22.2a0,0,0,0,1,0,0v4.54A7.24,7.24,0,0,1,52.07,83H44.36a7.24,7.24,0,0,1-7.24-7.24V71.19A0,0,0,0,1,37.12,71.19Z" fill="none" stroke="#231f20" stroke-linejoin="round" stroke-width="1.5"></path><path d="M49,87.91H47.43A3.39,3.39,0,0,1,44,84.52V83h8.35v1.55h0A3.39,3.39,0,0,1,49,87.91Z" fill="none" stroke="#231f20" stroke-linejoin="round" stroke-width="1.5"></path><path d="M48,28.36a20.13,20.13,0,0,0-12.67,4.45" fill="none" stroke="#231f20" stroke-linejoin="round" stroke-width="1.5"></path><path d="M30.89,37.75a20.24,20.24,0,0,0,6.23,27.9v5.54H48" fill="none" stroke="#231f20" stroke-linejoin="round" stroke-width="1.5"></path><line x1="45" y1="75.71" x2="58.62" y2="75.71" fill="none" stroke="#231f20" stroke-linejoin="round" stroke-width="1.5"></line><path d="M48.22,68.62V28.36S58.64,27.05,61,35.86c0,0,8.05.14,8.67,5.71.69,6.18-2,7.57-7.39,7.85,0,0,7.18.81,7.18,7.17S60.7,62.7,60.7,62.7a23.08,23.08,0,0,0-1.39,8.64" fill="none" stroke="#231f20" stroke-linejoin="round" stroke-width="1.5"></path><path d="M54,43.06s1,6.84,8.3,6.36" fill="none" stroke="#231f20" stroke-linejoin="round" stroke-width="1.5"></path><path d="M54,33.66s1.65,2.2,7,2.2" fill="none" stroke="#231f20" stroke-linejoin="round" stroke-width="1.5"></path><path d="M60.7,62.7s-9.25-.27-8,8.49" fill="none" stroke="#231f20" stroke-linejoin="round" stroke-width="1.5"></path><path d="M48.22,54.21s2.76,2.94,8.22,2.25" fill="none" stroke="#231f20" stroke-linejoin="round" stroke-width="1.5"></path><path d="M36,44.07a19,19,0,0,1,2-4.29" fill="none" stroke="#fff" stroke-linejoin="round" stroke-width="1.5"></path><path d="M40.79,60a16.44,16.44,0,0,1-5.36-9.75" fill="none" stroke="#fff" stroke-linejoin="round" stroke-width="1.5"></path><line x1="48.22" y1="21.14" x2="48.22" y2="11.24" fill="none" stroke="#231f20" stroke-linejoin="round" stroke-width="1.5"></line><line x1="59.35" y1="24.18" x2="65.64" y2="16.53" fill="none" stroke="#231f20" stroke-linejoin="round" stroke-width="1.5"></line><line x1="36.76" y1="24.18" x2="30.46" y2="16.53" fill="none" stroke="#231f20" stroke-linejoin="round" stroke-width="1.5"></line></g></svg>