<svg id="Layer_1" data-name="Layer 1" xmlns="http://www.w3.org/2000/svg" viewBox="0 0 500 500" width="500" height="500" class="illustration"><defs><style>.cls-1{fill:#ffbeb3;}.cls-2{fill:#f2f2f2;}.cls-3,.cls-4{fill:#c3c7c9;}.cls-3{opacity:0.26;}.cls-5,.cls-7{fill:#24285b;}.cls-6{fill:#0099f5;}.cls-7{opacity:0.13;}.cls-8{fill:#13183f;}.cls-9{fill:#006ff4;}.cls-10{fill:#f0457d;}</style></defs><title>Business Analytics</title><path class="cls-1" d="M257.37,436.79H225.29a23.1,23.1,0,0,1-23.08-23.08V398.19h78.24v15.52A23.11,23.11,0,0,1,257.37,436.79Zm-45.16-28.6v5.52a13.09,13.09,0,0,0,13.08,13.08h32.08a13.1,13.1,0,0,0,13.08-13.08v-5.52Z"></path><rect class="cls-2" x="26.42" y="74.43" width="446.19" height="324.2"></rect><path class="cls-3" d="M433.08,74.43v283.3a3,3,0,0,1-3,3H26.42v37.9H472.61V74.43Z"></path><rect class="cls-4" x="18.91" y="388.67" width="461.22" height="22.43" rx="3"></rect><rect class="cls-4" x="19.87" y="63.21" width="461.22" height="22.43" rx="3"></rect><path class="cls-5" d="M220.92,130.83,181.4,220.76l97.14-14.55A98.32,98.32,0,0,0,220.92,130.83Z"></path><path class="cls-6" d="M278.54,206.21,181.4,220.76l39.52-89.93a98.2,98.2,0,1,0,57.62,75.38Z"></path><path class="cls-7" d="M278.54,206.21a98.32,98.32,0,0,0-57.62-75.38l-5.16,11.75A97.79,97.79,0,0,1,238,191.47,99.77,99.77,0,0,1,239,206a98.26,98.26,0,0,1-98.23,98.23,99.79,99.79,0,0,1-12.42-.78,98.25,98.25,0,0,0,150.16-97.26Z"></path><rect class="cls-5" x="385.66" y="146.72" width="30.8" height="97.75" rx="3" transform="translate(802.11 391.2) rotate(-180)"></rect><path class="cls-8" d="M386.57,146.72h5.78v85.83c0,1,.41,1.88.91,1.88h23.19v8.17c0,1-.41,1.88-.91,1.88h-29c-.51,0-.91-.84-.91-1.88v-94C385.66,147.57,386.06,146.72,386.57,146.72Z"></path><rect class="cls-6" x="344.5" y="118.94" width="30.8" height="125.53" rx="3" transform="translate(719.8 363.42) rotate(-180)"></rect><path class="cls-9" d="M345.42,118.94h5.78V229.16c0,1.33.41,2.41.91,2.41H375.3v10.49c0,1.34-.41,2.42-.91,2.42h-29c-.51,0-.92-1.08-.92-2.42V121.36C344.5,120,344.91,118.94,345.42,118.94Z"></path><path class="cls-10" d="M319.5,352.45H276.92a4,4,0,0,1,0-8H317.6L350,304.53a4,4,0,0,1,2.84-1.47,4,4,0,0,1,3,1.08l25.82,24.25L409.45,304a4,4,0,0,1,5.28,6l-30.5,26.73a4,4,0,0,1-5.37-.09l-25.33-23.79L322.61,351A4,4,0,0,1,319.5,352.45Z"></path><circle class="cls-10" cx="353.62" cy="307.05" r="7.7"></circle><circle class="cls-10" cx="413.98" cy="305.45" r="7.7"></circle><circle class="cls-10" cx="319.56" cy="347.33" r="7.7"></circle></svg>