<svg xmlns="http://www.w3.org/2000/svg" viewBox="0 0 100 100" width="500" height="500" class="illustration"><defs><style>.cls-1{fill:#231f20;}.cls-1,.cls-2,.cls-3,.cls-4,.cls-5,.cls-6,.cls-7{stroke:#231f20;}.cls-1,.cls-2,.cls-3,.cls-4{stroke-linejoin:bevel;}.cls-1,.cls-2,.cls-3,.cls-4,.cls-5,.cls-6{stroke-width:1.5px;}.cls-2{fill:#ffd44d;}.cls-3,.cls-7{fill:#f0457d;}.cls-4{fill:#0099f5;}.cls-5{fill:#fff;}.cls-5,.cls-6{stroke-miterlimit:10;}.cls-6{fill:none;}.cls-7{stroke-miterlimit:10;stroke-width:1.5px;}</style></defs><g id="Layer_2" data-name="Layer 2"><rect class="cls-1" x="14.06" y="20.89" width="33.84" height="41.98"></rect><polyline class="cls-2" points="31.6 17.99 47.91 17.99 47.91 59.97 14.06 59.97 14.06 17.99 25.01 17.99"></polyline><rect class="cls-3" x="19.02" y="26.66" width="5.99" height="26.18"></rect><rect class="cls-4" x="27.73" y="36.13" width="5.99" height="16.71"></rect><rect class="cls-3" x="36.45" y="34.65" width="5.99" height="18.18"></rect><rect class="cls-1" x="52.09" y="20.89" width="33.84" height="24.66"></rect><polyline class="cls-2" points="81.14 17.99 85.94 17.99 85.94 42.66 52.09 42.66 52.09 17.99 75.6 17.99"></polyline><rect class="cls-4" x="57.05" y="33.22" width="5.99" height="3.74"></rect><rect class="cls-4" x="65.76" y="27.62" width="5.99" height="9.33"></rect><rect class="cls-4" x="74.48" y="32.92" width="5.99" height="4.04"></rect><rect class="cls-1" x="52.09" y="57.34" width="33.84" height="24.66"></rect><rect class="cls-2" x="52.09" y="50.75" width="33.84" height="28.36"></rect><g id="Layer_2-2" data-name="Layer 2"><path class="cls-5" d="M41.89,39.1A14.55,14.55,0,0,0,31.6,64h0A14.56,14.56,0,1,0,41.89,39.1Zm-.44,3.67A10,10,0,1,1,31,53.22a.24.24,0,0,1,0-.12A10.9,10.9,0,0,1,41.33,42.77.24.24,0,0,1,41.45,42.77Z"></path><path class="cls-1" d="M52.8,53.66a10.91,10.91,0,1,1-21.82,0,3.24,3.24,0,0,1,0-.44A10,10,0,1,0,41.45,42.77a3.17,3.17,0,0,1,.44,0A10.91,10.91,0,0,1,52.8,53.66Z"></path><line class="cls-6" x1="31.6" y1="63.96" x2="28.81" y2="66.75"></line><rect class="cls-7" x="12.56" y="70.42" width="19.74" height="5.41" rx="2.7" transform="translate(-45.13 37.28) rotate(-45)"></rect></g><path class="cls-5" d="M41.33,42.77A10.9,10.9,0,0,0,31,53.1a2.55,2.55,0,0,1,0-.39,10,10,0,0,1,10-10A2.48,2.48,0,0,1,41.33,42.77Z"></path><polygon class="cls-4" points="56.73 72.93 64.6 65.06 70.61 66.55 76.33 57.78 80.79 57.78 80.79 72.93 56.73 72.93"></polygon></g></svg>