<?xml version="1.0" standalone="no"?>
<!DOCTYPE svg PUBLIC "-//W3C//DTD SVG 20010904//EN"
 "http://www.w3.org/TR/2001/REC-SVG-20010904/DTD/svg10.dtd">
<svg version="1.0" xmlns="http://www.w3.org/2000/svg"
 width="626.000000pt" height="626.000000pt" viewBox="0 0 626.000000 626.000000"
 preserveAspectRatio="xMidYMid meet">

<g transform="translate(0.000000,626.000000) scale(0.100000,-0.100000)"
fill="#000000" stroke="none">
<path d="M2820 4240 l0 -500 280 0 280 0 0 -90 0 -90 -334 0 -334 0 -11 46
c-8 31 -18 48 -31 51 -15 4 -17 9 -9 30 5 13 9 34 9 47 0 17 11 27 49 43 93
39 102 116 24 196 -73 76 -207 119 -368 120 -121 0 -197 -20 -254 -70 -69 -58
-73 -118 -35 -452 l16 -138 -25 -48 c-22 -45 -27 -49 -62 -49 -36 -1 -41 -5
-70 -54 -25 -41 -59 -72 -151 -140 -66 -49 -131 -102 -146 -120 -42 -51 -68
-135 -79 -257 -22 -257 -51 -570 -54 -573 -3 -3 -77 130 -120 218 -15 30 -36
62 -47 71 -18 14 -20 27 -19 95 1 74 -4 94 -74 304 -86 255 -141 381 -177 404
-51 33 -137 48 -258 44 -125 -5 -194 -25 -205 -59 -16 -48 60 -467 119 -659
19 -63 99 -261 177 -440 257 -591 349 -803 349 -811 0 -5 -55 -10 -122 -12
-68 -1 896 -3 2142 -3 1246 0 2195 3 2110 6 l-155 5 -3 222 -2 223 -75 0 -75
0 0 28 c0 56 9 66 98 109 49 22 112 60 142 83 l55 41 -42 -39 c-24 -22 -78
-58 -120 -81 -63 -34 -71 -41 -43 -36 82 15 142 38 177 68 34 29 113 140 113
158 0 11 -126 -29 -197 -62 -45 -21 -75 -45 -109 -87 -27 -31 -52 -61 -57 -67
-11 -13 -1 27 39 158 19 60 34 122 34 139 0 22 4 29 15 25 26 -10 110 22 152
57 43 38 76 104 87 174 8 54 4 53 -89 -23 -63 -52 -96 -90 -149 -168 -10 -16
-12 -8 -14 49 -5 118 -20 104 -18 -17 0 -63 -3 -132 -7 -153 l-9 -40 -18 40
c-10 21 -44 66 -75 99 -48 50 -127 150 -218 275 -17 25 -18 24 -12 -45 7 -83
39 -224 59 -263 21 -40 69 -82 112 -97 35 -13 7 -14 -258 -15 l-298 0 0 95 0
94 143 3 142 3 3 498 2 497 -145 0 -146 0 1 103 c1 56 1 114 1 130 l-1 27
-470 0 -470 0 0 90 0 90 300 0 300 0 0 500 0 500 -635 0 -635 0 0 -500z m1258
-2 l2 -488 -625 0 -625 0 0 490 0 490 623 -3 622 -2 3 -487z m-1481 -450 c-1
-18 5 -25 31 -33 30 -8 32 -12 26 -40 -3 -16 -14 -49 -24 -72 -18 -41 -19 -41
-62 -37 -23 3 -53 7 -66 10 -23 5 -23 5 7 33 36 34 38 57 11 111 -11 22 -20
42 -20 45 0 3 22 5 50 5 46 0 50 -2 47 -22z m-221 -144 c8 -18 14 -49 14 -69
0 -19 5 -35 10 -35 6 0 10 6 10 14 0 8 7 16 15 20 8 3 15 12 15 21 0 16 28 16
137 -1 76 -11 80 -87 14 -256 -57 -142 -49 -134 -115 -118 -58 14 -86 5 -86
-26 0 -21 -13 -17 -92 29 -40 24 -107 58 -149 77 l-75 33 20 53 c12 28 25 50
30 47 33 -21 83 -21 124 -2 23 12 42 26 42 32 0 8 4 7 12 -1 15 -15 64 -16 73
-2 4 6 -8 10 -29 10 -50 0 -60 23 -47 107 11 69 35 118 52 107 6 -3 17 -21 25
-40z m302 -6 c21 -21 13 -38 -18 -38 -33 0 -35 3 -20 31 12 22 21 24 38 7z
m10 -66 c3 -10 -4 -13 -24 -10 -15 2 -29 9 -32 16 -3 10 4 13 24 10 15 -2 29
-9 32 -16z m2 -34 c-1 -13 -23 -48 -31 -48 -2 0 -4 14 -5 30 -1 23 3 30 17 30
11 0 19 -6 19 -12z m700 -8 c0 -18 -7 -20 -67 -20 -69 0 -153 -28 -153 -50 0
-7 72 -10 215 -10 206 0 217 1 245 22 17 12 30 25 30 30 0 4 -40 8 -90 8 -83
0 -90 1 -90 20 0 20 7 20 471 20 l471 0 -37 -42 c-21 -24 -56 -62 -77 -85
l-38 -43 -826 0 c-783 0 -826 1 -819 18 4 9 11 29 15 43 4 14 19 38 34 52 14
14 26 33 26 42 0 13 40 15 345 15 338 0 345 0 345 -20z m80 -16 c0 -34 -1 -35
-32 -32 -29 3 -33 7 -36 36 -3 31 -2 32 32 32 35 0 36 -1 36 -36z m790 -184
l0 -30 -405 0 -405 0 0 -490 c0 -269 0 -493 0 -497 0 -5 126 -9 280 -11 l280
-2 0 -95 0 -95 -231 0 -232 0 -38 35 c-47 42 -61 43 -124 10 -28 -16 -55 -23
-67 -19 -10 3 -30 -1 -43 -10 -19 -12 -51 -16 -141 -16 -109 0 -118 1 -146 25
-20 17 -42 25 -68 25 -22 0 -43 6 -51 16 -15 19 -90 11 -123 -12 -11 -8 -24
-14 -28 -14 -3 0 -14 26 -23 58 -9 31 -18 65 -21 75 -5 16 13 17 280 17 l286
0 0 500 0 500 -324 0 -325 0 10 30 11 30 824 0 824 0 0 -30z m-2271 -31 l-24
-20 26 15 c14 9 29 13 34 9 4 -5 5 -2 1 5 -4 7 -1 12 8 12 9 0 16 -4 16 -10 0
-5 6 -7 14 -4 20 8 117 -36 109 -49 -3 -6 -1 -7 6 -3 14 9 168 -66 204 -100
15 -13 31 -43 37 -67 6 -23 13 -50 16 -59 3 -10 4 -18 1 -18 -10 0 -195 129
-191 133 3 3 0 8 -7 13 -8 5 -10 3 -4 -6 6 -10 4 -12 -7 -7 -9 3 -34 11 -57
18 -22 7 -38 16 -34 22 3 6 1 7 -5 4 -11 -7 -171 31 -186 44 -11 10 34 89 52
89 9 0 6 -7 -9 -21z m-897 -46 c24 -26 85 -179 161 -398 56 -166 61 -187 62
-267 0 -73 3 -90 21 -110 11 -12 47 -72 79 -133 89 -170 138 -263 339 -638
102 -192 186 -350 186 -353 0 -2 -9 -4 -19 -4 -20 0 -81 104 -283 485 -259
487 -306 591 -441 976 -63 178 -128 358 -145 399 -18 41 -32 78 -32 83 0 11
52 -17 72 -40z m2138 -453 l0 -490 -282 2 -283 3 -3 23 -3 23 255 -3 256 -3 0
448 0 447 -300 0 c-165 0 -300 2 -300 4 0 2 3 11 6 20 5 14 44 16 330 16 l324
0 0 -490z m1475 0 l0 -485 -622 -3 -623 -2 0 490 0 490 623 -2 622 -3 0 -485z
m-2698 388 c31 -6 50 -15 46 -21 -3 -6 -1 -7 6 -3 14 9 138 -27 196 -56 86
-44 183 -119 194 -150 17 -49 14 -51 -35 -18 -70 49 -62 30 10 -23 99 -73 123
-105 130 -174 3 -32 22 -123 41 -203 42 -172 175 -652 184 -662 4 -4 70 10
146 31 149 40 164 40 213 -3 32 -29 57 -126 31 -126 -6 0 -8 7 -5 16 3 9 2 12
-5 9 -6 -4 -8 -13 -5 -21 3 -7 -12 -26 -34 -44 -31 -25 -43 -29 -58 -21 -14 7
-19 7 -19 -4 0 -8 7 -11 16 -7 14 5 14 3 2 -11 -7 -9 -19 -17 -26 -17 -7 0
-18 -7 -25 -15 -7 -8 -17 -12 -24 -8 -6 3 -8 3 -4 -2 10 -10 -39 -48 -52 -40
-6 4 -9 2 -8 -3 5 -17 -79 -71 -102 -67 -11 2 -18 0 -15 -6 4 -5 11 -7 16 -4
5 4 9 4 9 1 0 -10 -116 -76 -134 -76 -22 0 -99 77 -91 90 3 5 1 12 -5 15 -18
11 -91 165 -84 177 4 6 3 8 -3 5 -13 -8 -66 99 -57 114 4 7 3 9 -3 6 -13 -8
-26 20 -16 35 3 6 1 8 -5 5 -12 -8 -75 120 -65 136 3 6 1 7 -5 3 -14 -8 -95
150 -86 167 4 7 3 8 -1 4 -11 -10 -47 62 -38 76 3 5 2 7 -4 4 -19 -12 -65 113
-70 193 -6 83 10 131 67 217 35 51 35 53 15 53 -9 0 -20 -12 -25 -26 -9 -23
-12 -25 -28 -13 -15 12 -16 12 -5 -1 10 -13 6 -27 -18 -75 -29 -57 -31 -65
-26 -150 3 -69 10 -102 29 -142 29 -62 11 -59 -37 6 -35 47 -43 50 -41 17 0
-13 3 -24 6 -23 11 4 98 -87 93 -97 -3 -6 -3 -8 2 -4 9 9 35 -9 35 -25 0 -10
-145 -4 -204 9 -20 5 -27 3 -22 -4 11 -19 83 -33 166 -34 l78 -1 27 -56 c14
-31 30 -63 35 -71 5 -8 26 -51 48 -95 l39 -80 -6 -125 -6 -125 -75 -37 c-73
-36 -152 -59 -255 -73 l-50 -7 94 59 c93 58 221 165 221 185 0 6 -26 -14 -57
-44 -32 -30 -92 -77 -133 -105 -133 -89 -188 -109 -219 -80 -11 9 -13 9 -7 0
5 -9 0 -13 -16 -13 -14 0 -27 9 -34 23 -16 33 -95 179 -111 205 -7 12 -11 27
-8 32 3 6 2 10 -4 10 -6 0 -18 14 -27 31 -11 23 -12 29 -2 24 7 -4 7 -1 -2 7
-19 16 -53 68 -45 68 4 0 -2 12 -13 28 -10 15 -40 66 -65 113 l-47 87 20 188
c10 104 24 258 30 343 18 274 40 314 258 465 46 32 56 35 70 24 15 -11 15 -11
5 3 -16 20 -5 32 22 24 11 -3 44 -11 72 -17z m458 2 c3 -5 1 -10 -4 -10 -6 0
-11 5 -11 10 0 6 2 10 4 10 3 0 8 -4 11 -10z m100 0 c3 -5 1 -10 -4 -10 -6 0
-11 5 -11 10 0 6 2 10 4 10 3 0 8 -4 11 -10z m175 -2 c0 -4 -9 -8 -21 -8 -11
0 -18 4 -15 8 3 5 12 9 21 9 8 0 15 -4 15 -9z m110 2 c0 -5 -21 -10 -46 -10
-27 0 -43 4 -39 10 3 6 24 10 46 10 21 0 39 -4 39 -10z m35 0 c3 -5 1 -10 -4
-10 -6 0 -11 5 -11 10 0 6 2 10 4 10 3 0 8 -4 11 -10z m50 0 c3 -5 1 -10 -4
-10 -6 0 -11 5 -11 10 0 6 2 10 4 10 3 0 8 -4 11 -10z m50 0 c3 -5 1 -10 -4
-10 -6 0 -11 5 -11 10 0 6 2 10 4 10 3 0 8 -4 11 -10z m-252 -37 c-7 -2 -19
-2 -25 0 -7 3 -2 5 12 5 14 0 19 -2 13 -5z m100 0 c-13 -2 -35 -2 -50 0 -16 2
-5 4 22 4 28 0 40 -2 28 -4z m-363 -27 c0 -3 -4 -8 -10 -11 -5 -3 -10 -1 -10
4 0 6 5 11 10 11 6 0 10 -2 10 -4z m50 0 c0 -3 -4 -8 -10 -11 -5 -3 -10 -1
-10 4 0 6 5 11 10 11 6 0 10 -2 10 -4z m50 0 c0 -3 -4 -8 -10 -11 -5 -3 -10
-1 -10 4 0 6 5 11 10 11 6 0 10 -2 10 -4z m170 -6 c0 -5 -6 -10 -14 -10 -8 0
-18 5 -21 10 -3 6 3 10 14 10 12 0 21 -4 21 -10z m110 0 c0 -5 -18 -10 -40
-10 -22 0 -40 5 -40 10 0 6 18 10 40 10 22 0 40 -4 40 -10z m40 6 c0 -3 -4 -8
-10 -11 -5 -3 -10 -1 -10 4 0 6 5 11 10 11 6 0 10 -2 10 -4z m50 0 c0 -3 -4
-8 -10 -11 -5 -3 -10 -1 -10 4 0 6 5 11 10 11 6 0 10 -2 10 -4z m50 0 c0 -3
-4 -8 -10 -11 -5 -3 -10 -1 -10 4 0 6 5 11 10 11 6 0 10 -2 10 -4z m-250 -36
c0 -5 -9 -10 -21 -10 -11 0 -17 5 -14 10 3 6 13 10 21 10 8 0 14 -4 14 -10z
m110 0 c0 -5 -21 -10 -46 -10 -27 0 -43 4 -39 10 3 6 24 10 46 10 21 0 39 -4
39 -10z m-107 -37 c-7 -2 -21 -2 -30 0 -10 3 -4 5 12 5 17 0 24 -2 18 -5z m90
0 c-13 -2 -35 -2 -50 0 -16 2 -5 4 22 4 28 0 40 -2 28 -4z m-338 -33 c-3 -5
-15 -10 -26 -10 -10 0 -19 5 -19 10 0 6 12 10 26 10 14 0 23 -4 19 -10z m248
-1 c-8 -8 -16 -8 -30 0 -16 9 -14 10 12 11 21 0 26 -3 18 -11z m197 1 c0 -5
-18 -10 -40 -10 -22 0 -40 5 -40 10 0 6 18 10 40 10 22 0 40 -4 40 -10z m-445
-30 c3 -5 -3 -10 -14 -10 -12 0 -21 5 -21 10 0 6 6 10 14 10 8 0 18 -4 21 -10z
m245 0 c0 -5 -9 -10 -21 -10 -11 0 -17 5 -14 10 3 6 13 10 21 10 8 0 14 -4 14
-10z m200 0 c0 -5 -18 -10 -40 -10 -22 0 -40 5 -40 10 0 6 18 10 40 10 22 0
40 -4 40 -10z m-415 -30 c3 -5 1 -10 -4 -10 -6 0 -11 5 -11 10 0 6 2 10 4 10
3 0 8 -4 11 -10z m50 0 c3 -5 1 -10 -4 -10 -6 0 -11 5 -11 10 0 6 2 10 4 10 3
0 8 -4 11 -10z m50 0 c3 -5 1 -10 -4 -10 -6 0 -11 5 -11 10 0 6 2 10 4 10 3 0
8 -4 11 -10z m420 0 c3 -5 1 -10 -4 -10 -6 0 -11 5 -11 10 0 6 2 10 4 10 3 0
8 -4 11 -10z m50 0 c3 -5 1 -10 -4 -10 -6 0 -11 5 -11 10 0 6 2 10 4 10 3 0 8
-4 11 -10z m-602 -7 c-7 -2 -19 -2 -25 0 -7 3 -2 5 12 5 14 0 19 -2 13 -5z
m250 0 c-7 -2 -21 -2 -30 0 -10 3 -4 5 12 5 17 0 24 -2 18 -5z m180 0 c-13 -2
-33 -2 -45 0 -13 2 -3 4 22 4 25 0 35 -2 23 -4z m-433 -33 c0 -5 -2 -10 -4
-10 -3 0 -8 5 -11 10 -3 6 -1 10 4 10 6 0 11 -4 11 -10z m30 6 c0 -3 -4 -8
-10 -11 -5 -3 -10 -1 -10 4 0 6 5 11 10 11 6 0 10 -2 10 -4z m50 0 c0 -3 -4
-8 -10 -11 -5 -3 -10 -1 -10 4 0 6 5 11 10 11 6 0 10 -2 10 -4z m173 -13 c-7
-2 -21 -2 -30 0 -10 3 -4 5 12 5 17 0 24 -2 18 -5z m90 0 c-13 -2 -35 -2 -50
0 -16 2 -5 4 22 4 28 0 40 -2 28 -4z m-87 -30 c-11 -11 -35 -12 -42 -2 -3 5 7
9 22 9 15 0 24 -3 20 -7z m104 -3 c0 -10 -75 -8 -86 3 -4 4 14 7 39 7 26 0 47
-4 47 -10z m-110 -30 c0 -5 -9 -10 -20 -10 -11 0 -20 5 -20 10 0 6 9 10 20 10
11 0 20 -4 20 -10z m110 0 c0 -5 -18 -10 -40 -10 -22 0 -40 5 -40 10 0 6 18
10 40 10 22 0 40 -4 40 -10z m40 0 c0 -5 -4 -10 -10 -10 -5 0 -10 5 -10 10 0
6 5 10 10 10 6 0 10 -4 10 -10z m50 0 c0 -5 -4 -10 -10 -10 -5 0 -10 5 -10 10
0 6 5 10 10 10 6 0 10 -4 10 -10z m45 0 c3 -5 1 -10 -4 -10 -6 0 -11 5 -11 10
0 6 2 10 4 10 3 0 8 -4 11 -10z m-235 -36 c0 -2 -12 -4 -27 -4 -21 0 -24 3
-14 9 13 8 41 5 41 -5z m90 6 c11 -7 1 -9 -35 -9 -44 1 -46 2 -20 9 17 4 32 8
35 9 3 0 12 -4 20 -9z m-99 -39 c-8 -5 -20 -7 -28 -4 -21 8 -15 13 15 13 20 0
23 -3 13 -9z m109 0 c0 -10 -76 -8 -87 2 -3 4 15 7 40 7 26 0 47 -4 47 -9z
m-110 -31 c0 -5 -9 -10 -21 -10 -11 0 -17 5 -14 10 3 6 13 10 21 10 8 0 14 -4
14 -10z m200 0 c0 -5 -18 -10 -40 -10 -22 0 -40 5 -40 10 0 6 18 10 40 10 22
0 40 -4 40 -10z m-200 -30 c0 -5 -10 -10 -22 -9 -22 0 -22 1 -3 9 11 5 21 9
23 9 1 1 2 -3 2 -9z m206 -3 c4 -4 -15 -7 -42 -6 -33 0 -43 3 -29 8 23 9 61 8
71 -2z m-316 -21 c0 -3 -4 -8 -10 -11 -5 -3 -10 -1 -10 4 0 6 5 11 10 11 6 0
10 -2 10 -4z m113 -13 c-7 -2 -21 -2 -30 0 -10 3 -4 5 12 5 17 0 24 -2 18 -5z
m180 0 c-13 -2 -33 -2 -45 0 -13 2 -3 4 22 4 25 0 35 -2 23 -4z m2426 -329
c-30 -32 -148 -118 -154 -112 -3 3 16 19 43 35 26 17 65 49 87 71 43 44 64 49
24 6z m-1089 -149 l0 -95 -72 0 -73 0 3 95 3 95 70 0 69 0 0 -95z m809 -62
c25 -15 49 -31 52 -36 4 -6 -2 -35 -12 -66 -17 -47 -49 -202 -49 -232 0 -5
-22 -9 -50 -9 l-50 0 0 -225 0 -226 -87 3 -88 3 -3 257 -2 257 97 75 c54 42
113 88 131 102 18 14 32 34 32 46 0 18 4 19 35 14 19 -4 35 -5 35 -2 0 2 -20
16 -45 31 -50 29 -108 83 -126 117 -7 13 9 -1 36 -30 26 -29 68 -65 94 -79z
m-2209 22 c10 -12 7 -18 -19 -32 -17 -10 -31 -22 -31 -26 0 -4 20 4 43 18 48
28 73 31 112 13 27 -12 31 -46 4 -39 -42 11 -71 2 -123 -39 -31 -23 -56 -46
-56 -50 0 -21 62 -21 116 0 58 21 70 21 61 -2 -11 -29 -82 -67 -137 -74 l-56
-6 -27 96 c-15 53 -27 100 -27 106 0 5 14 16 30 25 17 9 30 11 30 6 0 -5 -7
-12 -16 -15 -9 -4 -14 -9 -11 -12 3 -4 21 5 39 20 38 30 51 32 68 11z m619 -9
c10 -11 1 -21 -46 -50 -32 -19 -53 -36 -48 -36 6 0 28 11 50 25 53 32 73 31
118 -6 41 -34 39 -61 -3 -39 -17 9 -29 9 -48 1 -13 -7 -22 -14 -19 -17 3 -3
13 -2 23 4 11 6 27 5 45 -2 39 -14 60 5 36 32 -9 10 -17 22 -17 25 0 4 101 7
225 7 143 0 225 -4 225 -10 0 -6 -27 -10 -60 -10 -45 0 -74 -7 -110 -25 -28
-14 -50 -30 -50 -35 0 -6 81 -10 216 -10 l216 0 35 35 35 35 218 0 c170 0 220
-3 229 -13 8 -11 6 -18 -9 -32 -17 -15 -51 -21 -173 -31 -160 -13 -176 -16
-219 -46 -19 -13 -44 -18 -91 -18 l-64 0 -104 -82 -103 -83 177 -3 176 -2 113
82 113 83 -110 5 -110 5 40 19 c28 13 80 21 174 28 138 9 196 25 207 53 14 37
-9 40 -324 45 l-307 6 440 2 c433 2 439 2 420 -17 -11 -11 -123 -98 -249 -195
l-228 -175 -700 -1 c-467 0 -697 3 -693 10 4 6 141 10 384 10 l377 0 152 121
c84 66 152 125 152 130 0 5 -128 9 -307 9 -286 0 -312 1 -362 21 -35 13 -57
17 -64 10 -6 -6 7 -12 36 -16 31 -5 54 -16 73 -36 33 -34 27 -46 -13 -26 -28
14 -88 12 -98 -3 -5 -9 54 -64 77 -72 7 -3 9 -9 5 -14 -4 -4 -34 6 -66 24 -68
37 -69 37 -101 12 l-25 -20 34 7 c24 4 32 3 27 -5 -4 -6 -26 -11 -49 -10 -23
1 -57 -2 -74 -6 -27 -6 -33 -5 -33 9 0 30 -30 82 -55 95 l-23 12 36 50 c74 99
90 114 103 101 10 -10 10 -13 1 -13 -7 0 -12 -4 -12 -9 0 -5 30 8 67 30 73 42
94 47 112 25z m621 -75 c0 -21 -6 -30 -21 -34 -33 -9 -49 3 -49 34 0 26 3 29
35 29 32 0 35 -3 35 -29z m-860 10 c0 -5 -15 -29 -33 -53 l-33 -43 -101 -3
c-96 -3 -101 -2 -96 17 8 31 -15 34 -77 11 -41 -15 -64 -19 -75 -12 -15 8 -11
15 31 47 43 32 54 36 92 32 23 -2 45 -1 48 4 7 12 244 12 244 0z m-121 -115
c-5 -5 -193 -56 -205 -56 -5 0 7 13 26 30 32 26 42 29 109 30 41 0 72 -2 70
-4z m906 -106 l-137 -110 -355 0 c-315 0 -354 2 -343 15 11 13 62 15 353 15
l340 0 95 78 96 77 -236 3 c-194 2 -238 5 -248 17 -11 13 23 15 280 15 l292 0
-137 -110z m-845 85 c51 -26 73 -100 39 -131 -18 -16 -19 -16 -19 0 0 11 5 15
13 10 6 -4 1 4 -13 19 -14 14 -35 39 -48 56 -13 17 -30 31 -38 31 -20 0 -17
18 4 23 29 8 32 7 62 -8z m-286 -26 c-9 -14 -68 -39 -94 -39 -11 0 -20 7 -20
15 0 11 11 15 38 16 20 0 46 4 57 9 27 12 27 12 19 -1z m651 1 c4 -6 -5 -10
-20 -10 -15 0 -24 4 -20 10 3 6 12 10 20 10 8 0 17 -4 20 -10z m95 0 c-20 -13
-40 -13 -40 0 0 6 12 10 28 10 21 0 24 -2 12 -10z m80 0 c-20 -13 -60 -13 -60
0 0 6 17 10 38 10 27 0 33 -3 22 -10z m75 0 c-3 -5 -17 -10 -31 -10 -13 0 -24
5 -24 10 0 6 14 10 31 10 17 0 28 -4 24 -10z m80 0 c-3 -5 -17 -10 -31 -10
-13 0 -24 5 -24 10 0 6 14 10 31 10 17 0 28 -4 24 -10z m80 0 c-3 -5 -20 -10
-36 -10 -18 0 -28 4 -24 10 3 6 20 10 36 10 18 0 28 -4 24 -10z m80 0 c-3 -5
-20 -10 -36 -10 -18 0 -28 4 -24 10 3 6 20 10 36 10 18 0 28 -4 24 -10z m201
-21 c-15 -11 -35 -38 -46 -59 -24 -46 -16 -55 48 -56 38 0 47 4 82 43 44 47
49 67 23 82 -13 8 11 10 87 10 120 0 122 10 -17 -90 l-82 -60 -156 3 -157 3
89 72 c69 56 95 72 122 72 l34 1 -27 -21z m-706 -3 c0 -11 -19 -15 -25 -6 -3
5 1 10 9 10 9 0 16 -2 16 -4z m75 -6 c-3 -5 -20 -10 -36 -10 -18 0 -28 4 -24
10 3 6 20 10 36 10 18 0 28 -4 24 -10z m80 0 c-3 -5 -20 -10 -36 -10 -18 0
-28 4 -24 10 3 6 20 10 36 10 18 0 28 -4 24 -10z m80 0 c-3 -5 -20 -10 -36
-10 -18 0 -28 4 -24 10 3 6 20 10 36 10 18 0 28 -4 24 -10z m75 0 c0 -5 -14
-10 -31 -10 -17 0 -28 4 -24 10 3 6 17 10 31 10 13 0 24 -4 24 -10z m75 0 c-3
-5 -17 -10 -31 -10 -13 0 -24 5 -24 10 0 6 14 10 31 10 17 0 28 -4 24 -10z
m80 0 c-3 -5 -17 -10 -31 -10 -13 0 -24 5 -24 10 0 6 14 10 31 10 17 0 28 -4
24 -10z m316 -26 c-12 -15 -21 -34 -21 -42 0 -8 -3 -13 -6 -9 -8 8 5 44 22 62
25 24 27 17 5 -11z m-1821 -152 c0 -9 -12 -12 -42 -10 -24 2 -42 6 -40 11 1 4
2 42 2 85 l1 77 39 -75 c21 -41 39 -81 40 -88z m975 148 c4 -6 -5 -10 -20 -10
-15 0 -24 4 -20 10 3 6 12 10 20 10 8 0 17 -4 20 -10z m180 0 c-3 -5 -20 -10
-36 -10 -18 0 -28 4 -24 10 3 6 20 10 36 10 18 0 28 -4 24 -10z m80 0 c-3 -5
-20 -10 -36 -10 -18 0 -28 4 -24 10 3 6 20 10 36 10 18 0 28 -4 24 -10z m80 0
c-3 -5 -20 -10 -36 -10 -18 0 -28 4 -24 10 3 6 20 10 36 10 18 0 28 -4 24 -10z
m80 0 c-3 -5 -20 -10 -36 -10 -18 0 -28 4 -24 10 3 6 20 10 36 10 18 0 28 -4
24 -10z m80 0 c-3 -5 -20 -10 -36 -10 -18 0 -28 4 -24 10 3 6 20 10 36 10 18
0 28 -4 24 -10z m-600 -30 c-3 -5 -20 -10 -36 -10 -18 0 -28 4 -24 10 3 6 20
10 36 10 18 0 28 -4 24 -10z m80 0 c-3 -5 -20 -10 -36 -10 -18 0 -28 4 -24 10
3 6 20 10 36 10 18 0 28 -4 24 -10z m70 0 c4 -6 -7 -10 -25 -10 -18 0 -29 4
-25 10 3 6 15 10 25 10 10 0 22 -4 25 -10z m90 0 c-3 -5 -20 -10 -36 -10 -18
0 -28 4 -24 10 3 6 20 10 36 10 18 0 28 -4 24 -10z m80 0 c-3 -5 -20 -10 -36
-10 -18 0 -28 4 -24 10 3 6 20 10 36 10 18 0 28 -4 24 -10z m80 0 c-3 -5 -20
-10 -36 -10 -18 0 -28 4 -24 10 3 6 20 10 36 10 18 0 28 -4 24 -10z m80 0 c-3
-5 -20 -10 -36 -10 -18 0 -28 4 -24 10 3 6 20 10 36 10 18 0 28 -4 24 -10z
m80 0 c-3 -5 -20 -10 -36 -10 -18 0 -28 4 -24 10 3 6 20 10 36 10 18 0 28 -4
24 -10z m-648 -6 c-3 -3 -12 -4 -19 -1 -8 3 -5 6 6 6 11 1 17 -2 13 -5z m-27
-24 c0 -5 -8 -10 -17 -10 -15 0 -16 2 -3 10 19 12 20 12 20 0z m80 0 c0 -5
-17 -10 -37 -10 -28 0 -34 3 -23 10 20 13 60 13 60 0z m80 0 c0 -5 -14 -10
-31 -10 -17 0 -28 4 -24 10 3 6 17 10 31 10 13 0 24 -4 24 -10z m80 0 c0 -5
-17 -10 -37 -10 -28 0 -34 3 -23 10 20 13 60 13 60 0z m80 0 c0 -5 -17 -10
-37 -10 -28 0 -34 3 -23 10 20 13 60 13 60 0z m80 0 c0 -5 -17 -10 -37 -10
-28 0 -34 3 -23 10 20 13 60 13 60 0z m75 0 c-3 -5 -21 -10 -38 -10 -24 0 -28
3 -17 10 20 13 63 13 55 0z m80 0 c-3 -5 -20 -10 -36 -10 -18 0 -28 4 -24 10
3 6 20 10 36 10 18 0 28 -4 24 -10z m80 0 c-3 -5 -20 -10 -36 -10 -18 0 -28 4
-24 10 3 6 20 10 36 10 18 0 28 -4 24 -10z m-1397 -117 c-15 -2 -42 -2 -60 0
-18 2 -6 4 27 4 33 0 48 -2 33 -4z m1675 0 c-200 -2 -526 -2 -725 0 -200 1
-37 2 362 2 399 0 562 -1 363 -2z m-1693 -73 c0 -57 -1 -60 -25 -60 -28 0 -45
30 -45 79 0 35 6 41 42 41 28 0 28 -1 28 -60z m78 1 c17 -33 32 -63 32 -68 0
-5 -21 -6 -47 -3 l-48 5 -1 55 c0 30 1 58 3 63 10 19 31 2 61 -52z m1707 -106
l0 -160 -483 -3 -483 -2 -43 35 c-70 57 -146 85 -287 108 -109 17 -126 22
-111 33 9 6 62 44 117 83 l100 71 595 -3 595 -2 0 -160z m165 -1 l0 -165 -32
3 -33 3 -3 150 c-1 82 0 155 2 162 3 7 19 13 36 13 l30 0 0 -166z"/>
<path d="M2890 4235 l0 -445 565 0 565 0 0 445 0 445 -565 0 -565 0 0 -445z
m650 355 c0 -5 -7 -10 -15 -10 -8 0 -15 5 -15 10 0 6 7 10 15 10 8 0 15 -4 15
-10z m110 0 c0 -5 -18 -10 -40 -10 -22 0 -40 5 -40 10 0 6 18 10 40 10 22 0
40 -4 40 -10z m40 0 c0 -5 -4 -10 -10 -10 -5 0 -10 5 -10 10 0 6 5 10 10 10 6
0 10 -4 10 -10z m50 0 c0 -5 -4 -10 -10 -10 -5 0 -10 5 -10 10 0 6 5 10 10 10
6 0 10 -4 10 -10z m50 0 c0 -5 -4 -10 -10 -10 -5 0 -10 5 -10 10 0 6 5 10 10
10 6 0 10 -4 10 -10z m-345 -110 l0 -105 -237 -3 -238 -2 0 103 c0 57 3 107 7
111 4 3 110 5 237 4 l231 -3 0 -105z m95 80 c12 -8 9 -10 -13 -10 -16 0 -26 4
-22 10 8 12 16 12 35 0z m110 0 c0 -6 -21 -10 -47 -10 -29 0 -43 4 -35 9 19
11 82 12 82 1z m-107 -37 c-7 -2 -21 -2 -30 0 -10 3 -4 5 12 5 17 0 24 -2 18
-5z m95 0 c-16 -2 -40 -2 -55 0 -16 2 -3 4 27 4 30 0 43 -2 28 -4z m-93 -33
c-3 -5 -12 -10 -20 -10 -8 0 -17 5 -20 10 -4 6 5 10 20 10 15 0 24 -4 20 -10z
m105 0 c0 -5 -18 -10 -39 -10 -22 0 -43 5 -46 10 -4 6 12 10 39 10 25 0 46 -4
46 -10z m-105 -30 c4 -6 -5 -10 -20 -10 -15 0 -24 4 -20 10 3 6 12 10 20 10 8
0 17 -4 20 -10z m105 0 c0 -5 -18 -10 -40 -10 -22 0 -40 5 -40 10 0 6 18 10
40 10 22 0 40 -4 40 -10z m150 -30 c0 -5 -4 -10 -10 -10 -5 0 -10 5 -10 10 0
6 5 10 10 10 6 0 10 -4 10 -10z m50 0 c0 -5 -4 -10 -10 -10 -5 0 -10 5 -10 10
0 6 5 10 10 10 6 0 10 -4 10 -10z m50 0 c0 -5 -4 -10 -10 -10 -5 0 -10 5 -10
10 0 6 5 10 10 10 6 0 10 -4 10 -10z m-357 -7 c-7 -2 -21 -2 -30 0 -10 3 -4 5
12 5 17 0 24 -2 18 -5z m190 0 c-13 -2 -35 -2 -50 0 -16 2 -5 4 22 4 28 0 40
-2 28 -4z m-188 -33 c-3 -5 -12 -10 -20 -10 -8 0 -17 5 -20 10 -4 6 5 10 20
10 15 0 24 -4 20 -10z m200 0 c-3 -5 -24 -10 -46 -10 -21 0 -39 5 -39 10 0 6
21 10 46 10 27 0 43 -4 39 -10z m-200 -30 c3 -5 -3 -10 -14 -10 -12 0 -21 5
-21 10 0 6 6 10 14 10 8 0 18 -4 21 -10z m200 0 c4 -6 -12 -10 -39 -10 -25 0
-46 5 -46 10 0 6 18 10 39 10 22 0 43 -4 46 -10z m55 0 c0 -5 -4 -10 -10 -10
-5 0 -10 5 -10 10 0 6 5 10 10 10 6 0 10 -4 10 -10z m50 0 c0 -5 -4 -10 -10
-10 -5 0 -10 5 -10 10 0 6 5 10 10 10 6 0 10 -4 10 -10z m50 0 c0 -5 -4 -10
-10 -10 -5 0 -10 5 -10 10 0 6 5 10 10 10 6 0 10 -4 10 -10z m-880 -111 c0
-39 -1 -40 -32 -37 -26 2 -34 8 -36 26 -6 37 5 52 38 52 28 0 30 -2 30 -41z
m875 1 c0 -33 -2 -35 -35 -35 -29 0 -36 4 -38 23 -6 40 5 54 40 50 30 -3 33
-6 33 -38z m-588 -48 c92 -41 134 -41 220 0 63 30 77 33 178 34 l110 2 -100
-8 c-100 -7 -114 -11 -201 -50 -66 -31 -127 -28 -215 10 -56 24 -97 34 -169
40 l-95 8 100 -2 c88 -2 109 -6 172 -34z m-287 -43 c0 -39 -1 -40 -32 -37 -26
2 -34 8 -36 26 -6 37 5 52 38 52 28 0 30 -2 30 -41z m875 1 c0 -33 -2 -35 -35
-35 -29 0 -36 4 -38 23 -6 40 5 54 40 50 30 -3 33 -6 33 -38z m-685 0 c25 -6
71 -22 104 -36 73 -33 137 -34 194 -5 63 32 148 51 229 51 114 0 86 -18 -34
-22 -88 -3 -117 -8 -155 -27 -26 -13 -67 -29 -90 -36 -40 -13 -41 -14 -13 -14
17 -1 44 -8 60 -17 64 -34 114 -47 210 -54 l100 -8 -110 2 c-99 3 -117 6 -182
34 -90 40 -127 40 -216 0 -63 -28 -84 -32 -172 -34 l-100 -2 95 8 c74 6 113
15 167 39 39 17 82 31 95 32 15 0 7 6 -27 19 -27 10 -74 27 -103 39 -39 16
-74 21 -137 21 -50 0 -85 4 -85 10 0 13 111 13 170 0z m-190 -153 c0 -37 -1
-38 -32 -35 -26 2 -34 8 -36 26 -6 37 4 49 37 48 29 -1 31 -3 31 -39z m875 2
c0 -32 -2 -34 -35 -34 -29 0 -36 4 -38 23 -6 37 3 47 39 46 32 -1 34 -3 34
-35z m-360 -44 c52 -26 74 -30 168 -33 120 -5 147 -22 34 -22 -83 0 -165 19
-228 52 -60 31 -116 28 -214 -12 -62 -25 -100 -34 -167 -38 -58 -3 -88 -1 -88
6 0 6 39 12 98 14 84 3 106 8 167 36 86 40 141 39 230 -3z m-515 -46 c0 -39
-1 -40 -32 -37 -26 2 -34 8 -36 26 -6 37 5 52 38 52 28 0 30 -2 30 -41z m875
1 c0 -33 -2 -35 -35 -35 -29 0 -36 4 -38 23 -6 40 5 54 40 50 30 -3 33 -6 33
-38z"/>
<path d="M2990 4475 l0 -95 220 0 220 0 0 95 0 95 -220 0 -220 0 0 -95z"/>
<path d="M3515 3238 c-3 -7 -4 -208 -3 -447 l3 -434 58 1 c31 0 287 1 567 1
l510 1 0 445 0 445 -565 0 c-443 0 -567 -3 -570 -12z m115 -48 c0 -5 -9 -10
-21 -10 -11 0 -17 5 -14 10 3 6 13 10 21 10 8 0 14 -4 14 -10z m110 0 c0 -5
-21 -10 -46 -10 -27 0 -43 4 -39 10 3 6 24 10 46 10 21 0 39 -4 39 -10z m60 0
c0 -5 -5 -10 -11 -10 -5 0 -7 5 -4 10 3 6 8 10 11 10 2 0 4 -4 4 -10z m50 0
c0 -5 -5 -10 -11 -10 -5 0 -7 5 -4 10 3 6 8 10 11 10 2 0 4 -4 4 -10z m225 0
c3 -5 -3 -10 -14 -10 -12 0 -21 5 -21 10 0 6 6 10 14 10 8 0 18 -4 21 -10z
m110 0 c4 -6 -12 -10 -39 -10 -25 0 -46 5 -46 10 0 6 18 10 39 10 22 0 43 -4
46 -10z m35 0 c0 -5 -5 -10 -11 -10 -5 0 -7 5 -4 10 3 6 8 10 11 10 2 0 4 -4
4 -10z m50 0 c0 -5 -5 -10 -11 -10 -5 0 -7 5 -4 10 3 6 8 10 11 10 2 0 4 -4 4
-10z m50 0 c0 -5 -5 -10 -11 -10 -5 0 -7 5 -4 10 3 6 8 10 11 10 2 0 4 -4 4
-10z m25 0 c3 -5 1 -10 -4 -10 -6 0 -11 5 -11 10 0 6 2 10 4 10 3 0 8 -4 11
-10z m-722 -37 c-7 -2 -19 -2 -25 0 -7 3 -2 5 12 5 14 0 19 -2 13 -5z m100 0
c-13 -2 -35 -2 -50 0 -16 2 -5 4 22 4 28 0 40 -2 28 -4z m350 0 c-7 -2 -19 -2
-25 0 -7 3 -2 5 12 5 14 0 19 -2 13 -5z m100 0 c-13 -2 -35 -2 -50 0 -16 2 -5
4 22 4 28 0 40 -2 28 -4z m-543 -33 c0 -5 -9 -10 -20 -10 -11 0 -20 5 -20 10
0 6 9 10 20 10 11 0 20 -4 20 -10z m110 0 c0 -5 -18 -10 -39 -10 -22 0 -43 5
-46 10 -4 6 12 10 39 10 25 0 46 -4 46 -10z m60 0 c0 -5 -2 -10 -4 -10 -3 0
-8 5 -11 10 -3 6 -1 10 4 10 6 0 11 -4 11 -10z m50 0 c0 -5 -2 -10 -4 -10 -3
0 -8 5 -11 10 -3 6 -1 10 4 10 6 0 11 -4 11 -10z m50 0 c0 -5 -2 -10 -4 -10
-3 0 -8 5 -11 10 -3 6 -1 10 4 10 6 0 11 -4 11 -10z m175 0 c-3 -5 -13 -10
-21 -10 -8 0 -14 5 -14 10 0 6 9 10 21 10 11 0 17 -4 14 -10z m110 0 c-3 -5
-24 -10 -46 -10 -21 0 -39 5 -39 10 0 6 21 10 46 10 27 0 43 -4 39 -10z m35 0
c0 -5 -2 -10 -4 -10 -3 0 -8 5 -11 10 -3 6 -1 10 4 10 6 0 11 -4 11 -10z m50
0 c0 -5 -2 -10 -4 -10 -3 0 -8 5 -11 10 -3 6 -1 10 4 10 6 0 11 -4 11 -10z
m50 0 c0 -5 -2 -10 -4 -10 -3 0 -8 5 -11 10 -3 6 -1 10 4 10 6 0 11 -4 11 -10z
m-690 -30 c0 -5 -9 -10 -20 -10 -11 0 -20 5 -20 10 0 6 9 10 20 10 11 0 20 -4
20 -10z m110 0 c0 -5 -21 -10 -46 -10 -27 0 -43 4 -39 10 3 6 24 10 46 10 21
0 39 -4 39 -10z m335 0 c3 -5 -3 -10 -14 -10 -12 0 -21 5 -21 10 0 6 6 10 14
10 8 0 18 -4 21 -10z m110 0 c4 -6 -12 -10 -39 -10 -25 0 -46 5 -46 10 0 6 18
10 39 10 22 0 43 -4 46 -10z m-562 -37 c-7 -2 -19 -2 -25 0 -7 3 -2 5 12 5 14
0 19 -2 13 -5z m100 0 c-13 -2 -35 -2 -50 0 -16 2 -5 4 22 4 28 0 40 -2 28 -4z
m350 0 c-7 -2 -19 -2 -25 0 -7 3 -2 5 12 5 14 0 19 -2 13 -5z m100 0 c-13 -2
-35 -2 -50 0 -16 2 -5 4 22 4 28 0 40 -2 28 -4z m-263 -23 c0 -5 -5 -10 -11
-10 -5 0 -7 5 -4 10 3 6 8 10 11 10 2 0 4 -4 4 -10z m-280 -10 c0 -5 -9 -10
-20 -10 -11 0 -20 5 -20 10 0 6 9 10 20 10 11 0 20 -4 20 -10z m200 0 c0 -5
-18 -10 -39 -10 -22 0 -43 5 -46 10 -4 6 12 10 39 10 25 0 46 -4 46 -10z m123
3 c-7 -2 -19 -2 -25 0 -7 3 -2 5 12 5 14 0 19 -2 13 -5z m122 -3 c-3 -5 -13
-10 -21 -10 -8 0 -14 5 -14 10 0 6 9 10 21 10 11 0 17 -4 14 -10z m200 0 c-3
-5 -24 -10 -46 -10 -21 0 -39 5 -39 10 0 6 21 10 46 10 27 0 43 -4 39 -10z
m48 3 c-7 -2 -19 -2 -25 0 -7 3 -2 5 12 5 14 0 19 -2 13 -5z m-693 -33 c0 -5
-9 -10 -20 -10 -11 0 -20 5 -20 10 0 6 9 10 20 10 11 0 20 -4 20 -10z m200 0
c0 -5 -21 -10 -46 -10 -27 0 -43 4 -39 10 3 6 24 10 46 10 21 0 39 -4 39 -10z
m245 0 c3 -5 -3 -10 -14 -10 -12 0 -21 5 -21 10 0 6 6 10 14 10 8 0 18 -4 21
-10z m200 0 c4 -6 -12 -10 -39 -10 -25 0 -46 5 -46 10 0 6 18 10 39 10 22 0
43 -4 46 -10z m-415 -30 c0 -5 -5 -10 -11 -10 -5 0 -7 5 -4 10 3 6 8 10 11 10
2 0 4 -4 4 -10z m50 0 c0 -5 -5 -10 -11 -10 -5 0 -7 5 -4 10 3 6 8 10 11 10 2
0 4 -4 4 -10z m50 0 c0 -5 -5 -10 -11 -10 -5 0 -7 5 -4 10 3 6 8 10 11 10 2 0
4 -4 4 -10z m370 0 c0 -5 -5 -10 -11 -10 -5 0 -7 5 -4 10 3 6 8 10 11 10 2 0
4 -4 4 -10z m50 0 c0 -5 -5 -10 -11 -10 -5 0 -7 5 -4 10 3 6 8 10 11 10 2 0 4
-4 4 -10z m50 0 c0 -5 -5 -10 -11 -10 -5 0 -7 5 -4 10 3 6 8 10 11 10 2 0 4
-4 4 -10z m-807 -7 c-7 -2 -19 -2 -25 0 -7 3 -2 5 12 5 14 0 19 -2 13 -5z
m190 0 c-13 -2 -35 -2 -50 0 -16 2 -5 4 22 4 28 0 40 -2 28 -4z m260 0 c-7 -2
-19 -2 -25 0 -7 3 -2 5 12 5 14 0 19 -2 13 -5z m190 0 c-13 -2 -35 -2 -50 0
-16 2 -5 4 22 4 28 0 40 -2 28 -4z m-633 -33 c0 -5 -6 -10 -14 -10 -8 0 -18 5
-21 10 -3 6 3 10 14 10 12 0 21 -4 21 -10z m107 4 c-10 -10 -77 -13 -82 -3 -4
5 15 9 41 9 26 0 45 -3 41 -6z m63 -4 c0 -5 -2 -10 -4 -10 -3 0 -8 5 -11 10
-3 6 -1 10 4 10 6 0 11 -4 11 -10z m50 0 c0 -5 -2 -10 -4 -10 -3 0 -8 5 -11
10 -3 6 -1 10 4 10 6 0 11 -4 11 -10z m50 0 c0 -5 -2 -10 -4 -10 -3 0 -8 5
-11 10 -3 6 -1 10 4 10 6 0 11 -4 11 -10z m173 -7 c-7 -2 -19 -2 -25 0 -7 3
-2 5 12 5 14 0 19 -2 13 -5z m100 0 c-13 -2 -35 -2 -50 0 -16 2 -5 4 22 4 28
0 40 -2 28 -4z m-543 -23 c0 -5 -9 -10 -20 -10 -11 0 -20 5 -20 10 0 6 9 10
20 10 11 0 20 -4 20 -10z m110 0 c0 -5 -20 -10 -45 -10 -25 0 -45 5 -45 10 0
6 20 10 45 10 25 0 45 -4 45 -10z m335 -10 c-3 -5 -13 -10 -21 -10 -8 0 -14 5
-14 10 0 6 9 10 21 10 11 0 17 -4 14 -10z m111 2 c-7 -12 -74 -14 -81 -2 -4 6
11 10 40 10 25 0 44 -4 41 -8z m-386 -28 c0 -2 -9 -4 -20 -4 -11 0 -20 4 -20
9 0 5 9 7 20 4 11 -3 20 -7 20 -9z m-177 -1 c-7 -2 -19 -2 -25 0 -7 3 -2 5 12
5 14 0 19 -2 13 -5z m100 0 c-13 -2 -35 -2 -50 0 -16 2 -5 4 22 4 28 0 40 -2
28 -4z m357 -3 c0 -5 -9 -10 -20 -10 -11 0 -20 5 -20 10 0 6 9 10 20 10 11 0
20 -4 20 -10z m110 0 c0 -5 -20 -10 -45 -10 -25 0 -45 5 -45 10 0 6 20 10 45
10 25 0 45 -4 45 -10z m30 0 c0 -5 -5 -10 -11 -10 -5 0 -7 5 -4 10 3 6 8 10
11 10 2 0 4 -4 4 -10z m100 0 c0 -5 -5 -10 -11 -10 -5 0 -7 5 -4 10 3 6 8 10
11 10 2 0 4 -4 4 -10z m-690 -24 c0 -9 -30 -14 -35 -6 -4 6 3 10 14 10 12 0
21 -2 21 -4z m102 -5 c-15 -9 -69 -7 -79 3 -4 3 16 6 43 6 31 0 44 -3 36 -9z
m344 -4 c4 -4 -2 -7 -14 -7 -12 0 -22 4 -22 9 0 10 26 9 36 -2z m113 -3 c2 -2
-18 -4 -45 -3 -36 0 -44 3 -29 9 18 7 63 3 74 -6z m-559 -24 c0 -5 -9 -10 -20
-10 -11 0 -20 5 -20 10 0 6 9 10 20 10 11 0 20 -4 20 -10z m110 0 c0 -5 -20
-10 -45 -10 -25 0 -45 5 -45 10 0 6 20 10 45 10 25 0 45 -4 45 -10z m336 -7
c-10 -11 -36 -12 -36 -2 0 5 10 9 22 9 12 0 18 -3 14 -7z m110 0 c-10 -11 -86
-12 -86 -2 0 5 21 9 47 9 25 0 43 -3 39 -7z m-326 -23 c0 -5 -2 -10 -4 -10 -3
0 -8 5 -11 10 -3 6 -1 10 4 10 6 0 11 -4 11 -10z m50 0 c0 -5 -2 -10 -4 -10
-3 0 -8 5 -11 10 -3 6 -1 10 4 10 6 0 11 -4 11 -10z m50 0 c0 -5 -4 -10 -10
-10 -5 0 -10 5 -10 10 0 6 5 10 10 10 6 0 10 -4 10 -10z m-337 -7 c-7 -2 -19
-2 -25 0 -7 3 -2 5 12 5 14 0 19 -2 13 -5z m190 0 c-13 -2 -35 -2 -50 0 -16 2
-5 4 22 4 28 0 40 -2 28 -4z m267 -3 c0 -5 -9 -10 -20 -10 -11 0 -20 5 -20 10
0 6 9 10 20 10 11 0 20 -4 20 -10z m200 0 c0 -5 -20 -10 -45 -10 -25 0 -45 5
-45 10 0 6 20 10 45 10 25 0 45 -4 45 -10z m43 3 c-7 -2 -19 -2 -25 0 -7 3 -2
5 12 5 14 0 19 -2 13 -5z m-700 -30 c-7 -2 -19 -2 -25 0 -7 3 -2 5 12 5 14 0
19 -2 13 -5z m190 0 c-13 -2 -35 -2 -50 0 -16 2 -5 4 22 4 28 0 40 -2 28 -4z
m462 -8 c6 -2 -11 -4 -37 -4 -27 -1 -48 3 -48 7 0 7 62 5 85 -3z m-202 -2 c-7
-2 -21 -2 -30 0 -10 3 -4 5 12 5 17 0 24 -2 18 -5z m-443 -23 c0 -5 -9 -10
-20 -10 -11 0 -20 5 -20 10 0 6 9 10 20 10 11 0 20 -4 20 -10z m200 0 c0 -5
-18 -10 -40 -10 -22 0 -40 5 -40 10 0 6 18 10 40 10 22 0 40 -4 40 -10z m30 0
c0 -5 -2 -10 -4 -10 -3 0 -8 5 -11 10 -3 6 -1 10 4 10 6 0 11 -4 11 -10z m50
0 c0 -5 -2 -10 -4 -10 -3 0 -8 5 -11 10 -3 6 -1 10 4 10 6 0 11 -4 11 -10z
m163 -7 c-7 -2 -21 -2 -30 0 -10 3 -4 5 12 5 17 0 24 -2 18 -5z m190 0 c-13
-2 -35 -2 -50 0 -16 2 -5 4 22 4 28 0 40 -2 28 -4z m110 0 c-7 -2 -19 -2 -25
0 -7 3 -2 5 12 5 14 0 19 -2 13 -5z m-743 -33 c0 -5 -9 -10 -20 -10 -11 0 -20
5 -20 10 0 6 9 10 20 10 11 0 20 -4 20 -10z m110 0 c0 -5 -20 -10 -45 -10 -25
0 -45 5 -45 10 0 6 20 10 45 10 25 0 45 -4 45 -10z m110 0 c0 -5 -4 -10 -10
-10 -5 0 -10 5 -10 10 0 6 5 10 10 10 6 0 10 -4 10 -10z m50 0 c0 -5 -2 -10
-4 -10 -3 0 -8 5 -11 10 -3 6 -1 10 4 10 6 0 11 -4 11 -10z m-270 -30 c0 -5
-9 -10 -21 -10 -11 0 -17 5 -14 10 3 6 13 10 21 10 8 0 14 -4 14 -10z m110 0
c0 -5 -21 -10 -46 -10 -27 0 -43 4 -39 10 3 6 24 10 46 10 21 0 39 -4 39 -10z
m-117 -37 c-7 -2 -19 -2 -25 0 -7 3 -2 5 12 5 14 0 19 -2 13 -5z m100 0 c-13
-2 -35 -2 -50 0 -16 2 -5 4 22 4 28 0 40 -2 28 -4z m70 0 c-7 -2 -19 -2 -25 0
-7 3 -2 5 12 5 14 0 19 -2 13 -5z m50 0 c-7 -2 -19 -2 -25 0 -7 3 -2 5 12 5
14 0 19 -2 13 -5z m-213 -33 c0 -5 -9 -10 -20 -10 -11 0 -20 5 -20 10 0 6 9
10 20 10 11 0 20 -4 20 -10z m110 0 c0 -5 -20 -10 -45 -10 -25 0 -45 5 -45 10
0 6 20 10 45 10 25 0 45 -4 45 -10z m-110 -30 c0 -5 -9 -10 -20 -10 -11 0 -20
5 -20 10 0 6 9 10 20 10 11 0 20 -4 20 -10z m110 0 c0 -5 -21 -10 -46 -10 -27
0 -43 4 -39 10 3 6 24 10 46 10 21 0 39 -4 39 -10z m170 -30 c0 -5 -5 -10 -11
-10 -5 0 -7 5 -4 10 3 6 8 10 11 10 2 0 4 -4 4 -10z m50 0 c0 -5 -5 -10 -11
-10 -5 0 -7 5 -4 10 3 6 8 10 11 10 2 0 4 -4 4 -10z m-337 -7 c-7 -2 -19 -2
-25 0 -7 3 -2 5 12 5 14 0 19 -2 13 -5z m190 0 c-13 -2 -35 -2 -50 0 -16 2 -5
4 22 4 28 0 40 -2 28 -4z m-183 -33 c0 -5 -9 -10 -20 -10 -11 0 -20 5 -20 10
0 6 9 10 20 10 11 0 20 -4 20 -10z m200 0 c0 -5 -18 -10 -39 -10 -22 0 -43 5
-46 10 -4 6 12 10 39 10 25 0 46 -4 46 -10z m-200 -30 c0 -5 -9 -10 -20 -10
-11 0 -20 5 -20 10 0 6 9 10 20 10 11 0 20 -4 20 -10z m200 0 c0 -5 -21 -10
-46 -10 -27 0 -43 4 -39 10 3 6 24 10 46 10 21 0 39 -4 39 -10z m130 0 c0 -5
-2 -10 -4 -10 -3 0 -8 5 -11 10 -3 6 -1 10 4 10 6 0 11 -4 11 -10z"/>
<path d="M2160 3126 c0 -2 7 -7 16 -10 8 -3 12 -2 9 4 -6 10 -25 14 -25 6z"/>
<path d="M1795 3110 c-3 -6 1 -7 9 -4 18 7 21 14 7 14 -6 0 -13 -4 -16 -10z"/>
<path d="M1810 3096 c0 -2 7 -7 16 -10 8 -3 12 -2 9 4 -6 10 -25 14 -25 6z"/>
<path d="M1632 2942 c-11 -25 -11 -25 4 -10 9 9 15 21 13 27 -2 6 -10 -2 -17
-17z"/>
<path d="M1780 2743 c0 -10 7 -47 15 -82 9 -35 13 -73 10 -85 -3 -12 -2 -15 1
-8 4 8 16 -10 30 -44 13 -31 20 -62 17 -67 -3 -6 -1 -7 4 -4 13 8 26 -20 16
-36 -3 -7 -3 -9 2 -5 4 4 16 -3 26 -15 25 -30 24 -6 -1 44 -12 22 -18 45 -14
51 4 6 3 8 -3 5 -6 -4 -15 5 -21 18 -13 29 -49 166 -55 209 -4 33 -27 49 -27
19z"/>
<path d="M1816 2743 c-6 -14 -5 -15 5 -6 7 7 10 15 7 18 -3 3 -9 -2 -12 -12z"/>
<path d="M1900 2471 c0 -6 4 -13 10 -16 6 -3 7 1 4 9 -7 18 -14 21 -14 7z"/>
<path d="M2091 2424 c0 -11 3 -14 6 -6 3 7 2 16 -1 19 -3 4 -6 -2 -5 -13z"/>
<path d="M2120 2396 c0 -2 8 -10 18 -17 15 -13 16 -12 3 4 -13 16 -21 21 -21
13z"/>
<path d="M1880 2386 c0 -2 8 -10 18 -17 15 -13 16 -12 3 4 -13 16 -21 21 -21
13z"/>
<path d="M1717 1829 c7 -7 15 -10 18 -7 3 3 -2 9 -12 12 -14 6 -15 5 -6 -5z"/>
<path d="M2977 1689 c7 -7 15 -10 18 -7 3 3 -2 9 -12 12 -14 6 -15 5 -6 -5z"/>
<path d="M2875 1600 c5 -9 1 -10 -16 -6 -21 6 -22 6 -6 -5 13 -7 22 -8 29 -1
6 6 6 12 -3 17 -8 6 -10 4 -4 -5z"/>
<path d="M2608 1583 c7 -3 16 -2 19 1 4 3 -2 6 -13 5 -11 0 -14 -3 -6 -6z"/>
<path d="M5101 2939 c-17 -30 -39 -80 -48 -111 l-16 -58 -19 38 c-11 20 -36
68 -57 106 l-38 69 -13 -37 c-27 -83 13 -171 95 -207 37 -17 45 -26 69 -89 25
-63 66 -187 66 -200 0 -2 -43 38 -95 90 l-95 95 0 -41 c0 -62 37 -125 90 -151
24 -13 55 -23 68 -23 19 0 11 9 -39 43 -35 23 -65 49 -67 57 -3 8 11 1 29 -17
19 -17 53 -41 77 -53 42 -22 43 -22 57 -4 24 33 115 200 115 212 0 7 5 12 10
12 10 0 -33 -90 -91 -189 l-31 -55 41 33 c58 46 138 138 161 186 17 34 20 62
20 162 0 66 -3 135 -6 153 l-7 32 -31 -60 c-18 -32 -60 -96 -94 -142 -79 -103
-99 -143 -108 -210 l-7 -53 -30 79 c-16 44 -35 95 -42 114 -12 32 -10 39 24
110 43 89 40 84 46 79 2 -3 -11 -36 -30 -74 -19 -39 -35 -72 -35 -74 0 -11 54
47 66 71 15 30 19 125 5 147 -7 10 -17 0 -40 -40z m-95 -163 c22 -21 30 -34
19 -28 -39 20 -95 100 -95 134 0 7 9 -5 19 -27 10 -22 36 -57 57 -79z"/>
</g>
</svg>
