<svg version="1.1" id="Layer_1" xmlns="http://www.w3.org/2000/svg" xmlns:xlink="http://www.w3.org/1999/xlink" x="0px" y="0px"
	 width="100%" viewBox="0 0 612 612" enable-background="new 0 0 612 612" xml:space="preserve">
<path fill="#FFFFFF" opacity="1.000000" stroke="none" 
	d="
M386.000000,613.000000 
	C258.833344,613.000000 132.166702,612.980713 5.500153,613.094238 
	C1.750738,613.097595 0.904426,612.249512 0.906399,608.500000 
	C1.012179,407.500092 1.012175,206.500137 0.906444,5.500226 
	C0.904472,1.751369 1.750132,0.904403 5.499870,0.906377 
	C206.499786,1.012193 407.499725,1.012177 608.499634,0.906465 
	C612.248230,0.904493 613.095581,1.749724 613.093628,5.499761 
	C612.987732,206.499680 612.987854,407.499664 613.093567,608.499573 
	C613.095520,612.247864 612.251404,613.102173 608.500244,613.095642 
	C534.500366,612.967224 460.500153,613.000000 386.000000,613.000000 
z"/>
<path fill="#060606" opacity="1.000000" stroke="none" 
	d="
M266.999847,489.766907 
	C246.002747,489.766907 225.505661,489.776703 205.008591,489.763947 
	C186.714905,489.752533 175.773956,478.833344 175.771484,460.572357 
	C175.759384,371.418457 175.749512,282.264526 175.756012,193.110611 
	C175.757339,174.908752 186.728317,164.073349 205.087631,164.059280 
	C217.919083,164.049454 230.750885,164.001434 243.581680,164.092514 
	C246.393265,164.112488 248.161804,164.049240 248.068573,160.261948 
	C247.939270,155.008621 250.466736,152.792786 255.794510,152.682144 
	C261.790710,152.557617 267.791565,152.669403 273.790253,152.649017 
	C279.637573,152.629150 283.871582,150.411743 286.231781,144.623337 
	C289.918030,135.582718 296.951141,130.588684 306.693146,130.474457 
	C316.679230,130.357376 323.821564,135.418839 327.682404,144.598129 
	C330.080353,150.299362 334.204620,152.671951 340.130646,152.635544 
	C345.962830,152.599701 351.796478,152.577621 357.627716,152.665115 
	C363.558899,152.754089 365.898926,154.786652 365.944122,160.724182 
	C365.968536,163.937103 367.335022,164.106171 369.822205,164.090759 
	C383.153107,164.008102 396.484833,164.044525 409.816254,164.047775 
	C426.817108,164.051910 438.164520,175.156128 438.169556,192.050766 
	C438.196503,282.204529 438.185638,372.358276 438.143738,462.512054 
	C438.136353,478.458221 426.470520,489.735382 409.978790,489.751526 
	C362.485870,489.798004 314.992859,489.767303 266.999847,489.766907 
z"/>
<path fill="#FDFDFD" opacity="1.000000" stroke="none" 
	d="
M404.970856,477.325653 
	C338.161682,477.323914 271.846985,477.324524 205.532303,477.318237 
	C193.132690,477.317078 187.986542,472.173431 187.985977,459.746246 
	C187.981903,370.771271 187.986008,281.796265 187.992477,192.821289 
	C187.993240,182.199814 193.699234,176.344620 204.206100,176.300858 
	C217.368713,176.246017 230.532028,176.331558 243.694321,176.246201 
	C246.287262,176.229401 248.053009,176.173981 248.068466,179.747177 
	C248.087173,184.074188 250.924545,186.282791 255.240540,186.390839 
	C258.737610,186.478378 262.237030,186.504227 265.735352,186.501480 
	C296.226379,186.477615 326.717438,186.467087 357.208344,186.387207 
	C363.539093,186.370621 364.992798,185.111130 365.932037,178.738327 
	C366.226929,176.737411 366.993011,176.262238 368.775879,176.268280 
	C383.271088,176.317490 397.776031,176.006287 412.258240,176.449951 
	C420.972778,176.716949 425.979279,183.195801 425.981628,192.804581 
	C425.999329,264.617706 425.993958,336.430847 425.995758,408.243988 
	C425.996185,425.239227 426.001984,442.234436 425.995239,459.229675 
	C425.990051,472.331329 421.034271,477.296814 407.964233,477.322906 
	C407.131256,477.324585 406.298309,477.324738 404.970856,477.325653 
z"/>
<path fill="#F4F4F4" opacity="1.000000" stroke="none" 
	d="
M302.388855,155.957794 
	C298.263153,151.180573 298.078583,147.178055 301.516968,143.948090 
	C304.541412,141.106979 309.334198,141.010010 312.314178,143.874619 
	C315.346375,146.789444 315.897644,150.357574 313.593689,153.784927 
	C310.890137,157.806717 307.030579,158.488083 302.388855,155.957794 
z"/>
<path fill="#0B0B0B" opacity="1.000000" stroke="none" 
	d="
M300.569641,299.630493 
	C298.767212,293.125610 300.657349,290.374084 306.992645,290.356934 
	C333.964386,290.283813 360.936493,290.304993 387.908325,290.367615 
	C392.887817,290.379181 395.649200,292.678131 395.338684,296.434204 
	C394.977783,300.799774 392.145325,302.121429 388.055084,302.112457 
	C360.916870,302.052826 333.778412,302.082031 306.640106,302.122528 
	C304.365234,302.125916 302.352661,301.718475 300.569641,299.630493 
z"/>
<path fill="#0B0B0B" opacity="1.000000" stroke="none" 
	d="
M380.967834,412.877502 
	C384.288544,412.886658 387.121887,412.785339 389.942047,412.933746 
	C393.295349,413.110168 395.084290,415.129211 395.285675,418.382019 
	C395.489807,421.679382 393.753876,423.718597 390.567230,424.414429 
	C389.447479,424.658905 388.253693,424.616486 387.093689,424.617004 
	C360.645935,424.628632 334.198151,424.622314 307.750397,424.638214 
	C305.032837,424.639832 302.327209,424.594910 300.605774,422.051910 
	C299.294006,420.114075 299.257477,417.932922 300.299652,415.890778 
	C301.481049,413.575867 303.569763,412.843628 306.121490,412.854645 
	C318.263977,412.907166 330.406769,412.877655 342.549469,412.877563 
	C355.191162,412.877441 367.832886,412.877533 380.967834,412.877502 
z"/>
<path fill="#0A0A0A" opacity="1.000000" stroke="none" 
	d="
M388.505920,240.968033 
	C361.782715,240.965759 335.504944,240.961823 309.227142,240.956192 
	C307.896729,240.955902 306.554504,241.051407 305.238159,240.911255 
	C301.792603,240.544403 299.686218,238.659622 299.657043,235.108444 
	C299.627686,231.533859 301.779968,229.682358 305.177460,229.193314 
	C306.157196,229.052322 307.169373,229.120743 308.166687,229.120438 
	C334.444397,229.112411 360.722107,229.107971 386.999817,229.103241 
	C387.332428,229.103180 387.665131,229.113678 387.997650,229.109314 
	C391.711700,229.060562 394.781525,230.231079 395.198608,234.348053 
	C395.634583,238.651260 393.131531,240.735794 388.505920,240.968033 
z"/>
<path fill="#020202" opacity="1.000000" stroke="none" 
	d="
M332.000183,351.702881 
	C350.152161,351.696930 367.804108,351.684814 385.456055,351.694214 
	C387.284790,351.695190 389.150482,351.619049 390.933716,351.940613 
	C393.769440,352.451996 395.243469,354.474426 395.292053,357.251617 
	C395.343506,360.193481 394.021881,362.421143 390.912933,363.056946 
	C389.786804,363.287231 388.593445,363.233154 387.430695,363.233643 
	C360.786194,363.245392 334.141663,363.236206 307.497192,363.266632 
	C304.935028,363.269562 302.416565,363.246368 300.715118,360.966827 
	C299.298187,359.068420 299.260468,356.916473 300.238983,354.826355 
	C301.369781,352.410919 303.516724,351.702148 306.021393,351.704712 
	C314.514313,351.713409 323.007263,351.704865 332.000183,351.702881 
z"/>
<path fill="#0B0B0B" opacity="1.000000" stroke="none" 
	d="
M244.151337,317.268341 
	C240.611404,319.577484 237.920029,318.574951 235.422012,316.037231 
	C230.639130,311.178375 225.825775,306.348999 220.984894,301.547913 
	C218.220291,298.806000 217.596191,295.796234 220.115540,292.702026 
	C222.334763,289.976440 226.220230,290.299438 229.294662,293.255127 
	C231.690308,295.558258 234.358963,297.688416 236.282272,300.346893 
	C239.520889,304.823456 241.727890,303.495148 244.901077,300.129761 
	C252.315201,292.266571 260.112946,284.764038 267.786682,277.147064 
	C271.551636,273.409973 275.172882,272.816925 277.630035,275.777313 
	C280.560669,279.308167 279.227112,282.366455 276.224518,285.325012 
	C265.562225,295.830750 255.018448,306.456818 244.151337,317.268341 
z"/>
<path fill="#0C0C0C" opacity="1.000000" stroke="none" 
	d="
M226.807007,246.191284 
	C224.455139,243.813126 222.225647,241.795212 220.283966,239.530518 
	C217.896149,236.745468 217.761322,233.626572 220.555069,231.117676 
	C223.120621,228.813721 226.073242,229.016693 228.607040,231.449371 
	C231.842270,234.555527 235.042709,237.703888 238.130386,240.955414 
	C239.824020,242.738937 240.987274,242.805603 242.809052,240.942780 
	C251.057022,232.508987 259.437134,224.203629 267.822052,215.904907 
	C271.497650,212.267090 275.288757,211.766312 277.682953,214.670074 
	C280.686890,218.313324 279.044556,221.372147 276.157501,224.242920 
	C266.269653,234.075058 256.450104,243.975937 246.561829,253.807678 
	C241.670914,258.670654 239.372345,258.639069 234.473175,253.828857 
	C231.983566,251.384460 229.527969,248.905441 226.807007,246.191284 
z"/>
<path fill="#080808" opacity="1.000000" stroke="none" 
	d="
M257.175171,410.176178 
	C261.069824,406.268433 264.731750,402.627991 268.351868,398.946442 
	C271.226501,396.022980 274.581268,395.105133 277.548126,398.177917 
	C280.467896,401.201874 279.523254,404.448090 276.580475,407.358826 
	C266.158081,417.667664 255.858856,428.100983 245.446228,438.419800 
	C241.817032,442.016296 239.227631,442.038361 235.577377,438.514862 
	C230.664078,433.772125 225.914459,428.860321 221.059433,424.056580 
	C218.100479,421.128815 217.474655,417.839264 220.487411,414.863251 
	C223.387573,411.998566 226.542282,412.878082 229.267349,415.638397 
	C232.075577,418.482971 235.028534,421.195129 237.695557,424.165100 
	C239.664032,426.357269 241.051697,426.613464 243.217392,424.271454 
	C247.623947,419.505981 252.337418,415.024323 257.175171,410.176178 
z"/>
<path fill="#070707" opacity="1.000000" stroke="none" 
	d="
M262.580353,343.572937 
	C264.944366,341.206329 267.004486,339.031006 269.190369,336.990387 
	C271.958588,334.406097 275.106232,334.345490 277.616455,337.005463 
	C280.110992,339.648773 279.877991,342.786407 277.224854,345.449982 
	C266.551544,356.165161 255.867188,366.869507 245.154190,377.544983 
	C241.965225,380.722809 238.773666,380.553101 235.614639,377.362091 
	C230.706161,372.403839 225.739822,367.502869 220.801178,362.574463 
	C217.998215,359.777283 217.583481,356.555603 220.330688,353.764832 
	C223.133453,350.917633 226.325134,351.489746 229.100601,354.289459 
	C230.388031,355.588135 231.682480,356.880005 232.986862,358.161652 
	C240.547577,365.590485 240.550629,365.590881 248.225021,357.928558 
	C252.930695,353.230316 257.630066,348.525757 262.580353,343.572937 
z"/>
</svg>