<?xml version="1.0" standalone="no"?>
<!DOCTYPE svg PUBLIC "-//W3C//DTD SVG 20010904//EN"
 "http://www.w3.org/TR/2001/REC-SVG-20010904/DTD/svg10.dtd">
<svg version="1.0" xmlns="http://www.w3.org/2000/svg"
 width="430.000000pt" height="550.000000pt" viewBox="0 0 900.000000 580.000000"
 preserveAspectRatio="xMidYMid meet">

<g transform="translate(0.000000,580.000000) scale(0.100000,-0.100000)"
fill="#000000" stroke="none">
<path d="M2454 3750 c-57 -23 -54 24 -54 -947 l0 -893 -622 0 c-474 -1 -627
-4 -639 -13 -39 -30 -39 -32 -39 -867 l0 -812 29 -29 29 -29 1122 0 c1192 0
1166 -1 1184 45 3 9 6 212 6 451 l0 434 880 0 880 0 0 -380 0 -380 -43 0 -44
0 -32 135 c-18 74 -37 151 -42 170 l-10 35 -539 0 -539 0 -9 -32 c-5 -18 -24
-95 -43 -170 l-33 -138 -52 0 c-45 0 -56 -4 -73 -26 -12 -15 -21 -37 -21 -50
l0 -24 733 0 733 0 22 -25 22 -25 428 0 c371 0 431 2 450 16 l22 15 0 440 0
439 240 0 240 0 0 504 0 503 -82 -33 -83 -33 -3 -386 -2 -385 -155 0 -155 0 0
261 c0 160 -4 268 -10 280 -10 17 -23 19 -154 19 l-143 0 -21 58 c-37 103
-239 673 -297 842 -32 91 -61 168 -64 172 -5 6 -301 -815 -301 -837 0 -4 21
-57 47 -117 42 -100 45 -110 29 -121 -15 -11 -17 -39 -16 -285 l0 -272 -880 0
-880 0 0 303 0 304 -23 21 c-23 22 -26 22 -450 22 l-427 1 0 844 0 845 1950 0
1949 0 3 -126 3 -127 40 -12 c22 -6 59 -22 83 -34 l42 -21 0 199 c0 110 -4
211 -10 225 -22 60 123 56 -2112 55 -1124 0 -2053 -4 -2064 -9z m876 -2705 l0
-765 -945 0 -945 0 0 765 0 765 945 0 945 0 0 -765z m2740 45 l0 -670 -265 0
-265 0 0 325 0 325 -50 0 -50 0 0 -325 0 -325 -85 0 -85 0 0 670 0 670 400 0
400 0 0 -670z m-4756 7 c21 -16 24 -60 6 -82 -15 -18 -61 -20 -78 -3 -18 18
-15 75 6 87 24 14 45 13 66 -2z m2104 -23 c4 -27 -26 -40 -46 -20 -13 13 -13
18 -2 31 18 21 44 15 48 -11z m2306 -766 c23 -32 4 -60 -37 -56 -25 2 -33 8
-35 26 -7 49 44 70 72 30z"/>
<path d="M3241 1348 c-13 -34 -93 -105 -118 -106 -12 0 -27 6 -34 14 -9 11
-48 14 -198 14 l-187 0 -29 -30 c-27 -28 -34 -30 -99 -30 l-71 0 -155 -155
-155 -155 -80 0 -80 0 -195 -197 -195 -198 195 193 195 192 85 0 85 0 155 155
155 155 71 0 c65 0 72 2 99 30 l29 30 177 0 c185 0 199 -3 205 -47 2 -9 8 -21
14 -27 14 -14 44 4 48 30 5 24 70 93 100 105 13 5 22 17 22 29 0 27 -28 26
-39 -2z"/>
<path d="M1594 458 l-29 -33 35 30 c19 17 37 31 39 33 2 1 0 2 -5 2 -6 0 -23
-15 -40 -32z"/>
<path d="M1513 380 c-18 -16 -29 -31 -25 -33 4 -2 20 11 35 29 35 42 32 43
-10 4z"/>
<path d="M1267 1074 c-16 -16 -7 -44 14 -44 15 0 20 5 17 22 -3 22 -19 33 -31
22z"/>
<path d="M5675 301 c-8 -15 3 -31 21 -31 9 0 14 7 12 17 -4 20 -24 28 -33 14z"/>
<path d="M4544 3130 c0 -190 2 -267 3 -172 2 94 2 250 0 345 -1 94 -3 17 -3
-173z"/>
<path d="M4100 3069 c-40 -145 -84 -304 -97 -354 -13 -49 -34 -126 -47 -170
-13 -44 -29 -98 -34 -120 -13 -51 -112 -408 -162 -587 l-39 -137 55 -171 55
-170 444 0 c245 0 445 3 445 8 0 4 -38 142 -85 307 l-85 300 -2 405 -3 405 -5
-378 -5 -379 -144 524 c-80 288 -161 581 -181 652 l-36 128 -74 -263z"/>
<path d="M6480 2635 c0 -223 2 -405 5 -405 11 0 70 33 113 62 l42 29 0 303 0
303 -44 41 c-38 35 -95 72 -111 72 -3 0 -5 -182 -5 -405z"/>
<path d="M6958 2235 l-18 -24 316 -313 c173 -172 321 -316 328 -320 8 -4 23 3
37 18 l23 25 -34 31 c-19 18 -166 161 -326 320 -160 158 -295 288 -300 288 -5
0 -17 -11 -26 -25z"/>
<path d="M6770 2045 l-24 -26 229 -230 c127 -127 274 -271 328 -321 l98 -91
25 24 25 25 -88 83 c-48 46 -196 191 -328 322 l-241 240 -24 -26z"/>
</g>
</svg>
