<svg xmlns="http://www.w3.org/2000/svg" viewBox="0 0 100 100" width="500" height="500" class="illustration"><defs><style>.cls-1,.cls-2{fill:none;}.cls-1,.cls-2,.cls-3,.cls-4{stroke:#231f20;stroke-linejoin:bevel;}.cls-1,.cls-3,.cls-4{stroke-width:1.5px;}.cls-2{stroke-width:3px;}.cls-3{fill:#f0457d;}.cls-4{fill:#ffd44d;}</style></defs><g id="Layer_2" data-name="Layer 2"><line class="cls-1" x1="14.69" y1="24.49" x2="79.19" y2="24.49"></line><polyline class="cls-1" points="14.95 24.5 79.19 24.5 79.19 80.36"></polyline><polyline class="cls-2" points="14.95 80.36 27.88 66.42 34.29 72.83 47.21 51.13 53.52 51.13 79.19 24.5"></polyline><circle class="cls-3" cx="79.19" cy="24.49" r="6.82"></circle><circle class="cls-3" cx="79.19" cy="24.49" r="3.65"></circle><polyline class="cls-1" points="14.95 20.75 14.95 80.36 84.36 80.36"></polyline><polygon class="cls-4" points="11.45 20.75 14.95 20.75 18.45 20.75 14.95 16.14 11.45 20.75"></polygon><polygon class="cls-4" points="84.36 76.86 84.36 80.36 84.36 83.86 88.97 80.36 84.36 76.86"></polygon><line class="cls-1" x1="64.68" y1="46.84" x2="79.19" y2="46.84"></line><line class="cls-1" x1="14.69" y1="46.84" x2="50.18" y2="46.84"></line><line class="cls-1" x1="50.18" y1="58.01" x2="79.19" y2="58.01"></line><line class="cls-1" x1="14.69" y1="58.01" x2="37.07" y2="58.01"></line><line class="cls-1" x1="44.51" y1="69.19" x2="79.19" y2="69.19"></line><line class="cls-1" x1="14.69" y1="69.19" x2="20.53" y2="69.19"></line><line class="cls-1" x1="14.69" y1="80.36" x2="79.19" y2="80.36"></line><line class="cls-1" x1="74.61" y1="35.67" x2="79.19" y2="35.67"></line><line class="cls-1" x1="14.69" y1="35.67" x2="60.76" y2="35.67"></line><circle class="cls-3" cx="14.95" cy="80.36" r="3.65"></circle></g></svg>