<?xml version="1.0" standalone="no"?>
<!DOCTYPE svg PUBLIC "-//W3C//DTD SVG 20010904//EN"
 "http://www.w3.org/TR/2001/REC-SVG-20010904/DTD/svg10.dtd">
<svg version="1.0" xmlns="http://www.w3.org/2000/svg"
 width="128.000000pt" height="108.000000pt" viewBox="0 0 128.000000 108.000000"
 preserveAspectRatio="xMidYMid meet">

<g transform="translate(0.000000,108.000000) scale(0.100000,-0.100000)"
fill="#000000" stroke="none">
<path d="M0 540 l0 -540 640 0 640 0 0 540 0 540 -640 0 -640 0 0 -540z m959
450 c20 -16 61 -54 91 -84 48 -50 55 -61 55 -97 0 -36 -6 -46 -53 -90 -29 -27
-60 -49 -70 -49 -24 0 -246 205 -250 232 -3 15 11 34 49 67 79 70 113 74 178
21z m-546 -37 c28 -27 71 -66 94 -87 24 -22 43 -45 43 -53 0 -20 -25 -26 -49
-13 -18 9 -27 7 -50 -10 -16 -11 -36 -20 -45 -20 -24 0 -19 34 9 60 19 18 22
26 13 37 -9 11 -16 9 -38 -12 -49 -47 -91 -23 -45 25 18 18 25 35 21 45 -5 13
-26 -2 -101 -71 -52 -48 -95 -90 -95 -93 0 -4 34 -40 75 -81 76 -75 87 -96 60
-106 -16 -7 -205 161 -205 182 0 13 239 244 253 244 4 0 31 -21 60 -47z m285
-114 c2 -9 -28 -45 -70 -86 -68 -65 -211 -199 -248 -233 -9 -8 -46 -43 -82
-77 l-65 -62 37 -36 38 -37 236 222 c229 214 266 241 274 200 1 -10 -92 -103
-233 -234 -129 -120 -235 -221 -235 -225 0 -3 17 -20 37 -38 l38 -31 60 56
c33 32 129 122 213 201 175 165 194 181 216 181 43 0 3 -49 -190 -231 -320
-301 -270 -268 -434 -287 -99 -11 -143 -13 -151 -5 -7 7 -4 50 10 144 l20 133
108 101 c59 55 171 160 248 233 133 126 166 147 173 111z m303 -439 l94 -90
-125 -120 c-69 -66 -131 -120 -137 -120 -20 0 -193 163 -193 182 0 21 16 31
34 21 8 -4 46 -39 86 -77 l72 -68 94 93 c83 83 101 109 74 109 -5 0 -22 -11
-38 -25 -34 -29 -50 -31 -59 -9 -3 9 6 27 23 45 19 19 25 32 18 39 -7 7 -18 2
-34 -15 -27 -29 -58 -33 -67 -8 -4 11 3 24 22 40 25 22 26 27 15 48 -13 25 -7
45 14 45 7 0 55 -41 107 -90z"/>
<path d="M831 941 c-19 -15 -32 -32 -30 -38 2 -6 43 -47 91 -92 l88 -83 30 22
c28 20 50 49 50 66 0 17 -156 154 -175 154 -11 0 -35 -13 -54 -29z"/>
<path d="M206 272 c-4 -26 -10 -62 -13 -80 l-5 -33 38 5 c22 3 61 8 88 11 l48
7 -38 40 c-22 22 -55 53 -75 69 l-37 29 -6 -48z"/>
</g>
</svg>
